<svg xmlns="http://www.w3.org/2000/svg" xmlns:xlink="http://www.w3.org/1999/xlink" width="1080" zoomAndPan="magnify" viewBox="0 0 810 1012.49997" height="1350" preserveAspectRatio="xMidYMid meet" version="1.0"><defs><clipPath id="f51a852a5b"><path d="M 23.339844 34 L 81.0625 34 L 81.0625 902 L 23.339844 902 Z M 23.339844 34 " clip-rule="nonzero"/></clipPath></defs><g clip-path="url(#f51a852a5b)"><path fill="#000000" d="M 23.339844 63.011719 L 23.339844 872.21875 C 23.339844 888.179688 36.261719 901.121094 52.203125 901.121094 C 68.140625 901.121094 81.0625 888.179688 81.0625 872.21875 L 81.0625 63.011719 C 81.0625 47.050781 68.140625 34.109375 52.203125 34.109375 C 36.261719 34.109375 23.339844 47.050781 23.339844 63.011719 Z M 23.339844 63.011719 " fill-opacity="1" fill-rule="nonzero"/></g><path stroke-linecap="round" transform="matrix(0.74963, 0, 0, 0.74963, 27.089856, 851.429528)" fill="none" stroke-linejoin="miter" d="M 38.498155 38.498384 L 878.381518 38.498384 " stroke="#000000" stroke-width="77" stroke-opacity="1" stroke-miterlimit="4"/><path stroke-linecap="round" transform="matrix(0.74963, 0, 0, 0.74963, 27.089856, 851.429528)" fill="none" stroke-linejoin="round" d="M 743.627496 -77.001341 L 897.630604 38.498384 L 743.627496 153.998109 " stroke="#000000" stroke-width="77" stroke-opacity="1" stroke-miterlimit="4"/></svg>